<svg width="32" height="32" viewBox="0 0 32 32" fill="none" xmlns="http://www.w3.org/2000/svg">
<path d="M22.172 18.5213L22.78 17.9173L21.368 16.4987L20.7627 17.1027L22.172 18.5213ZM24.8187 17.664L27.3667 19.0493L28.32 17.292L25.7733 15.908L24.8187 17.664ZM27.856 21.8013L25.9627 23.6853L27.372 25.1027L29.2653 23.22L27.856 21.8013ZM24.808 24.2907C22.8747 24.472 17.8747 24.3107 12.4587 18.9267L11.048 20.344C16.9573 26.22 22.5827 26.508 24.9947 26.2827L24.808 24.2907ZM12.4587 18.9267C7.29733 13.7933 6.44133 9.47732 6.33466 7.60399L4.33733 7.71732C4.47066 10.0747 5.53066 14.8587 11.048 20.344L12.4587 18.9267ZM14.292 10.6867L14.6747 10.3053L13.2667 8.88799L12.884 9.26799L14.292 10.6867ZM14.9787 5.45865L13.2987 3.21332L11.6973 4.41332L13.3773 6.65732L14.9787 5.45865ZM7.644 2.72399L5.55066 4.80399L6.96133 6.22265L9.05333 4.14265L7.644 2.72399ZM13.588 9.97732C12.8813 9.26799 12.8813 9.26799 12.8813 9.27065H12.8787L12.8747 9.27599C12.8117 9.34024 12.755 9.41033 12.7053 9.48532C12.6333 9.59199 12.5547 9.73199 12.488 9.90932C12.3256 10.3671 12.2852 10.8592 12.3707 11.3373C12.5493 12.4907 13.344 14.0147 15.3787 16.0387L16.7893 14.62C14.884 12.7267 14.4307 11.5747 14.3467 11.0307C14.3067 10.772 14.348 10.644 14.36 10.6147C14.3667 10.596 14.3693 10.5947 14.36 10.6067C14.3482 10.6251 14.3349 10.6425 14.32 10.6587L14.3067 10.672C14.3024 10.6761 14.2979 10.6801 14.2933 10.684L13.588 9.97732ZM15.3787 16.0387C17.4147 18.0627 18.9467 18.852 20.1013 19.028C20.692 19.1187 21.168 19.0467 21.5293 18.912C21.7314 18.8372 21.9204 18.731 22.0893 18.5973C22.1123 18.5781 22.1345 18.5581 22.156 18.5373L22.1653 18.5293L22.1693 18.5253L22.1707 18.5227C22.1707 18.5227 22.172 18.5213 21.4667 17.812C20.76 17.1027 20.764 17.1013 20.764 17.1013L20.7667 17.0987L20.7693 17.096L20.7773 17.0893L20.7907 17.076C20.8067 17.0616 20.8236 17.0482 20.8413 17.036C20.8547 17.0267 20.8507 17.0307 20.832 17.0387C20.7987 17.0507 20.668 17.092 20.4053 17.052C19.8533 16.9667 18.6933 16.5133 16.7893 14.62L15.3787 16.0387ZM13.2987 3.21199C11.9387 1.39865 9.26666 1.11065 7.644 2.72399L9.05333 4.14265C9.76266 3.43732 11.0213 3.51065 11.6973 4.41332L13.2987 3.21199ZM6.336 7.60532C6.30933 7.14399 6.52133 6.66132 6.96133 6.22399L5.54933 4.80532C4.83333 5.51732 4.26933 6.52532 4.33733 7.71732L6.336 7.60532ZM25.9627 23.6853C25.5973 24.0507 25.2027 24.256 24.8093 24.292L24.9947 26.2827C25.9747 26.1907 26.776 25.6973 27.3733 25.104L25.9627 23.6853ZM14.6747 10.3053C15.988 8.99999 16.0853 6.93732 14.98 5.45999L13.3787 6.65865C13.916 7.37732 13.836 8.31999 13.2653 8.88932L14.6747 10.3053ZM27.368 19.0507C28.4573 19.6427 28.6267 21.0373 27.8573 21.8027L29.268 23.22C31.0547 21.4427 30.504 18.4787 28.3213 17.2933L27.368 19.0507ZM22.78 17.9187C23.292 17.4093 24.116 17.284 24.82 17.6653L25.7747 15.9093C24.3293 15.1227 22.5373 15.34 21.3693 16.5L22.78 17.9187Z" fill="#991B1B"/>
</svg>
