<svg width="20" height="20" viewBox="0 0 20 20" fill="none" xmlns="http://www.w3.org/2000/svg">
<path d="M19.1781 9.81016C19.1516 9.74922 18.5016 8.30781 17.05 6.85625C15.7031 5.51094 13.3891 3.90625 10 3.90625C6.61095 3.90625 4.29688 5.51094 2.95001 6.85625C1.49845 8.30781 0.848446 9.74687 0.821883 9.81016C0.795174 9.87016 0.781372 9.9351 0.781372 10.0008C0.781372 10.0665 0.795174 10.1314 0.821883 10.1914C0.848446 10.2516 1.49845 11.693 2.95001 13.1445C4.29688 14.4898 6.61095 16.0938 10 16.0938C13.3891 16.0938 15.7031 14.4898 17.05 13.1445C18.5016 11.693 19.1516 10.2539 19.1781 10.1914C19.2048 10.1314 19.2186 10.0665 19.2186 10.0008C19.2186 9.9351 19.2048 9.87016 19.1781 9.81016ZM10 15.1562C7.54845 15.1562 5.40782 14.2641 3.63673 12.5055C2.89429 11.7676 2.26602 10.9232 1.77266 10C2.26588 9.07697 2.89416 8.23277 3.63673 7.49531C5.40782 5.73594 7.54845 4.84375 10 4.84375C12.4516 4.84375 14.5922 5.73594 16.3633 7.49531C17.1059 8.23277 17.7341 9.07697 18.2274 10C17.7297 10.9539 15.2344 15.1562 10 15.1562ZM10 6.40625C9.28923 6.40625 8.59442 6.61702 8.00343 7.01191C7.41244 7.40679 6.95182 7.96806 6.67982 8.62473C6.40781 9.2814 6.33665 10.004 6.47531 10.7011C6.61398 11.3982 6.95625 12.0386 7.45884 12.5412C7.96144 13.0438 8.60178 13.386 9.2989 13.5247C9.99602 13.6634 10.7186 13.5922 11.3753 13.3202C12.0319 13.0482 12.5932 12.5876 12.9881 11.9966C13.383 11.4056 13.5938 10.7108 13.5938 10C13.5925 9.04726 13.2135 8.1339 12.5398 7.4602C11.8661 6.78651 10.9527 6.40749 10 6.40625ZM10 12.6562C9.47465 12.6562 8.96109 12.5005 8.52427 12.2086C8.08746 11.9167 7.747 11.5019 7.54595 11.0165C7.34491 10.5311 7.29231 9.99705 7.3948 9.48179C7.49729 8.96653 7.75027 8.49323 8.12176 8.12175C8.49324 7.75026 8.96654 7.49728 9.4818 7.39479C9.99706 7.2923 10.5311 7.3449 11.0165 7.54595C11.5019 7.74699 11.9167 8.08745 12.2086 8.52427C12.5005 8.96108 12.6563 9.47464 12.6563 10C12.6563 10.7045 12.3764 11.3801 11.8783 11.8783C11.3801 12.3764 10.7045 12.6563 10 12.6562Z" fill="#991B1B"/>
</svg>
