<svg width="32" height="32" viewBox="0 0 32 32" fill="none" xmlns="http://www.w3.org/2000/svg">
<path d="M16 3C13.6836 3 11.4621 3.92019 9.82413 5.55813C8.18619 7.19607 7.266 9.4176 7.266 11.734C7.266 18.5693 13.934 26.7947 15.6813 28.8153C15.7751 28.9228 15.9077 28.9888 16.05 28.9988C16.1923 29.0088 16.3328 28.962 16.4407 28.8687L16.494 28.8153C18.218 26.7867 24.7333 18.5693 24.7333 11.7333C24.7332 9.41716 23.813 7.19591 22.1752 5.55813C20.5374 3.92035 18.3162 3.00018 16 3ZM16 14.104C15.4142 14.104 14.8415 13.9303 14.3544 13.6048C13.8673 13.2793 13.4877 12.8167 13.2635 12.2755C13.0393 11.7343 12.9806 11.1387 13.0949 10.5641C13.2092 9.98957 13.4913 9.46179 13.9055 9.04755C14.3198 8.63331 14.8476 8.3512 15.4221 8.23691C15.9967 8.12263 16.5923 8.18128 17.1335 8.40547C17.6747 8.62966 18.1373 9.0093 18.4628 9.4964C18.7883 9.9835 18.962 10.5562 18.962 11.142V11.1493C18.9601 11.9336 18.6471 12.6851 18.0919 13.239C17.5366 13.7929 16.7843 14.104 16 14.104Z" stroke="#991B1B" stroke-linecap="round" stroke-linejoin="round"/>
</svg>
