<svg width="32" height="32" viewBox="0 0 32 32" fill="none" xmlns="http://www.w3.org/2000/svg">
<path d="M6.66666 6.66666H24C25.0609 6.66666 26.0783 7.08808 26.8284 7.83823C27.5786 8.58838 28 9.60579 28 10.6667V22.6667C28 23.7275 27.5786 24.7449 26.8284 25.4951C26.0783 26.2452 25.0609 26.6667 24 26.6667H6.66666C5.6058 26.6667 4.58838 26.2452 3.83824 25.4951C3.08809 24.7449 2.66666 23.7275 2.66666 22.6667V10.6667C2.66666 9.60579 3.08809 8.58838 3.83824 7.83823C4.58838 7.08808 5.6058 6.66666 6.66666 6.66666ZM6.66666 7.99999C6 7.99999 5.41333 8.22666 4.96 8.62666L15.3333 15.3333L25.7067 8.62666C25.2533 8.22666 24.6667 7.99999 24 7.99999H6.66666ZM15.3333 16.9467L4.17333 9.70666C4.06666 9.99999 4 10.3333 4 10.6667V22.6667C4 23.3739 4.28095 24.0522 4.78105 24.5523C5.28114 25.0524 5.95942 25.3333 6.66666 25.3333H24C24.7072 25.3333 25.3855 25.0524 25.8856 24.5523C26.3857 24.0522 26.6667 23.3739 26.6667 22.6667V10.6667C26.6667 10.3333 26.6 9.99999 26.4933 9.70666L15.3333 16.9467Z" fill="#991B1B"/>
</svg>
