<svg width="72" height="72" viewBox="0 0 72 72" fill="none" xmlns="http://www.w3.org/2000/svg">
<path d="M48.0001 30.0001H23.9999C22.3501 30.0001 21 31.3501 21 32.9999C21 34.65 22.3501 36 23.9999 36H48.0001C49.6499 36 50.9999 34.65 50.9999 32.9999C50.9999 31.3501 49.6499 30.0001 48.0001 30.0001ZM57.0001 8.99998H54V5.99997C54 4.34998 52.65 2.99998 50.9999 2.99998C49.3501 2.99998 48.0001 4.34998 48.0001 5.99997V8.99998H23.9999V5.99997C23.9999 4.34998 22.6499 2.99998 21 2.99998C19.35 2.99998 18 4.34998 18 5.99997V8.99998H15C13.4087 8.99998 11.8826 9.63212 10.7574 10.7573C9.63214 11.8826 9 13.4087 9 15V57.0001C9 58.5913 9.63214 60.1175 10.7574 61.2426C11.8826 62.3679 13.4087 63 15 63H57.0001C60.3 63 63 60.3 63 57.0001V15C63 11.7 60.3 8.99998 57.0001 8.99998ZM54 57.0001H18C16.35 57.0001 15 55.6501 15 54V23.9999H57.0001V54C57.0001 55.6501 55.6501 57.0001 54 57.0001ZM39.0001 41.9999H23.9999C22.3501 41.9999 21 43.3499 21 45C21 46.6501 22.3501 48.0001 23.9999 48.0001H39.0001C40.6499 48.0001 41.9999 46.6501 41.9999 45C41.9999 43.3499 40.6499 41.9999 39.0001 41.9999Z" fill="#F8F8F8"/>
</svg>
