<svg width="20" height="20" viewBox="0 0 20 20" fill="none" xmlns="http://www.w3.org/2000/svg">
<g clip-path="url(#clip0_55_9)">
<path d="M13.9945 11.3333C14.154 10.907 14.2349 10.4552 14.2333 10C14.2333 8.98923 13.8318 8.01986 13.1171 7.30514C12.4024 6.59041 11.433 6.18889 10.4222 6.18889C9.97261 6.18941 9.52671 6.27032 9.10556 6.42778L10 7.35C10.136 7.32825 10.2734 7.3171 10.4111 7.31667C11.1258 7.31517 11.812 7.59652 12.32 8.09927C12.828 8.60202 13.1164 9.28534 13.1222 10C13.1218 10.1377 13.1106 10.2751 13.0889 10.4111L13.9945 11.3333Z" fill="#545454"/>
<path d="M19.05 9.73889C17.1778 6.27778 13.8945 4.18333 10.2611 4.18333C9.27187 4.18566 8.28926 4.34505 7.35001 4.65556L8.24445 5.55556C8.90326 5.3853 9.58067 5.29759 10.2611 5.29445C13.3889 5.29445 16.2333 7.03889 17.9278 9.97778C17.3062 11.0681 16.4822 12.0298 15.5 12.8111L16.2889 13.6C17.4256 12.683 18.3697 11.5501 19.0667 10.2667L19.2111 10L19.05 9.73889Z" fill="#545454"/>
<path d="M2.70555 3.21111L5.18333 5.68889C3.61717 6.69728 2.33717 8.09209 1.46666 9.73889L1.32222 10L1.46666 10.2667C3.33889 13.7278 6.62222 15.8222 10.2556 15.8222C11.6737 15.8219 13.0734 15.501 14.35 14.8833L17.1278 17.6611L18.1 16.8278L3.65555 2.38333L2.70555 3.21111ZM8.12222 8.62778L11.8167 12.3222C11.3992 12.5806 10.9187 12.719 10.4278 12.7222C10.0711 12.7222 9.71788 12.6517 9.38854 12.5147C9.0592 12.3777 8.7602 12.1769 8.50874 11.9239C8.25729 11.6709 8.05835 11.3707 7.92336 11.0405C7.78838 10.7103 7.72002 10.3567 7.72222 10C7.72848 9.51475 7.86676 9.04038 8.12222 8.62778ZM7.31666 7.82222C6.79691 8.55522 6.55329 9.4485 6.62895 10.3439C6.70461 11.2393 7.09467 12.079 7.73006 12.7144C8.36545 13.3498 9.20518 13.7398 10.1006 13.8155C10.9959 13.8911 11.8892 13.6475 12.6222 13.1278L13.5111 14.0167C12.4821 14.4565 11.3746 14.6833 10.2556 14.6833C7.12777 14.6833 4.28333 12.9389 2.58889 10C3.40206 8.56012 4.57318 7.35455 5.98889 6.5L7.31666 7.82222Z" fill="#545454"/>
</g>
<defs>
<clipPath id="clip0_55_9">
<rect width="20" height="20" fill="white"/>
</clipPath>
</defs>
</svg>
