<svg width="32" height="32" viewBox="0 0 32 32" fill="none" xmlns="http://www.w3.org/2000/svg">
<g clip-path="url(#clip0_22_33)">
<path d="M7.38469 0C6.40543 0 5.46627 0.38901 4.77383 1.08145C4.08139 1.77389 3.69238 2.71305 3.69238 3.69231V22.1538C3.69238 23.1331 4.08139 24.0723 4.77383 24.7647C5.46627 25.4571 6.40543 25.8462 7.38469 25.8462V26.3458C7.38469 27.3612 7.13484 28.2043 6.73115 28.7311C6.32622 29.2554 5.81546 29.5385 4.92315 29.5385C4.03084 29.5385 3.52007 29.2554 3.11515 28.7311C2.71146 28.2055 2.46161 27.36 2.46161 26.3458V20.4234C2.46616 20.2364 2.42802 20.0508 2.35008 19.8807C2.27214 19.7106 2.15645 19.5605 2.01181 19.4419C1.86716 19.3232 1.69738 19.2391 1.51534 19.1959C1.33331 19.1527 1.14383 19.1516 0.961302 19.1926C0.683436 19.2549 0.435762 19.4116 0.260486 19.636C0.0852097 19.8604 -0.00682282 20.1387 7.1059e-05 20.4234V26.3458C7.1059e-05 27.7785 0.363148 29.152 1.19269 30.2314C2.02223 31.3083 3.36623 32 4.92315 32C6.48007 32 7.82407 31.3083 8.65361 30.2302C9.48315 29.1532 9.84623 27.7785 9.84623 26.3458V25.8462C10.8255 25.8462 11.7646 25.4571 12.4571 24.7647C13.1495 24.0723 13.5385 23.1331 13.5385 22.1538V3.69231C13.5385 2.71305 13.1495 1.77389 12.4571 1.08145C11.7646 0.38901 10.8255 0 9.84623 0L7.38469 0ZM18.4616 0C17.4823 0 16.5432 0.38901 15.8508 1.08145C15.1583 1.77389 14.7693 2.71305 14.7693 3.69231V22.1538C14.7693 23.1331 15.1583 24.0723 15.8508 24.7647C16.5432 25.4571 17.4823 25.8462 18.4616 25.8462H27.077C29.1164 25.8462 31.8844 24.2302 31.8844 12.9231C31.8844 1.616 29.1164 0 27.077 0H18.4616ZM19.077 3.69231H27.6924C27.8556 3.69231 28.0121 3.75714 28.1275 3.87255C28.2429 3.98796 28.3078 4.14448 28.3078 4.30769V8C28.3078 8.16321 28.2429 8.31974 28.1275 8.43514C28.0121 8.55055 27.8556 8.61538 27.6924 8.61538H19.077C18.9138 8.61538 18.7573 8.55055 18.6419 8.43514C18.5264 8.31974 18.4616 8.16321 18.4616 8V4.30769C18.4616 4.14448 18.5264 3.98796 18.6419 3.87255C18.7573 3.75714 18.9138 3.69231 19.077 3.69231ZM19.077 11.0769H20.3078C20.471 11.0769 20.6275 11.1418 20.7429 11.2572C20.8583 11.3726 20.9231 11.5291 20.9231 11.6923V12.9231C20.9231 13.0863 20.8583 13.2428 20.7429 13.3582C20.6275 13.4736 20.471 13.5385 20.3078 13.5385H19.077C18.9138 13.5385 18.7573 13.4736 18.6419 13.3582C18.5264 13.2428 18.4616 13.0863 18.4616 12.9231V11.6923C18.4616 11.5291 18.5264 11.3726 18.6419 11.2572C18.7573 11.1418 18.9138 11.0769 19.077 11.0769ZM22.7693 11.0769H24.0001C24.1633 11.0769 24.3198 11.1418 24.4352 11.2572C24.5506 11.3726 24.6155 11.5291 24.6155 11.6923V12.9231C24.6155 13.0863 24.5506 13.2428 24.4352 13.3582C24.3198 13.4736 24.1633 13.5385 24.0001 13.5385H22.7693C22.6061 13.5385 22.4496 13.4736 22.3342 13.3582C22.2188 13.2428 22.1539 13.0863 22.1539 12.9231V11.6923C22.1539 11.5291 22.2188 11.3726 22.3342 11.2572C22.4496 11.1418 22.6061 11.0769 22.7693 11.0769ZM26.4616 11.0769H27.6924C27.8556 11.0769 28.0121 11.1418 28.1275 11.2572C28.2429 11.3726 28.3078 11.5291 28.3078 11.6923V12.9231C28.3078 13.0863 28.2429 13.2428 28.1275 13.3582C28.0121 13.4736 27.8556 13.5385 27.6924 13.5385H26.4616C26.2984 13.5385 26.1419 13.4736 26.0265 13.3582C25.9111 13.2428 25.8462 13.0863 25.8462 12.9231V11.6923C25.8462 11.5291 25.9111 11.3726 26.0265 11.2572C26.1419 11.1418 26.2984 11.0769 26.4616 11.0769ZM19.077 14.7692H20.3078C20.471 14.7692 20.6275 14.8341 20.7429 14.9495C20.8583 15.0649 20.9231 15.2214 20.9231 15.3846V16.6154C20.9231 16.7786 20.8583 16.9351 20.7429 17.0505C20.6275 17.1659 20.471 17.2308 20.3078 17.2308H19.077C18.9138 17.2308 18.7573 17.1659 18.6419 17.0505C18.5264 16.9351 18.4616 16.7786 18.4616 16.6154V15.3846C18.4616 15.2214 18.5264 15.0649 18.6419 14.9495C18.7573 14.8341 18.9138 14.7692 19.077 14.7692ZM22.7693 14.7692H24.0001C24.1633 14.7692 24.3198 14.8341 24.4352 14.9495C24.5506 15.0649 24.6155 15.2214 24.6155 15.3846V16.6154C24.6155 16.7786 24.5506 16.9351 24.4352 17.0505C24.3198 17.1659 24.1633 17.2308 24.0001 17.2308H22.7693C22.6061 17.2308 22.4496 17.1659 22.3342 17.0505C22.2188 16.9351 22.1539 16.7786 22.1539 16.6154V15.3846C22.1539 15.2214 22.2188 15.0649 22.3342 14.9495C22.4496 14.8341 22.6061 14.7692 22.7693 14.7692ZM26.4616 14.7692H27.6924C27.8556 14.7692 28.0121 14.8341 28.1275 14.9495C28.2429 15.0649 28.3078 15.2214 28.3078 15.3846V16.6154C28.3078 16.7786 28.2429 16.9351 28.1275 17.0505C28.0121 17.1659 27.8556 17.2308 27.6924 17.2308H26.4616C26.2984 17.2308 26.1419 17.1659 26.0265 17.0505C25.9111 16.9351 25.8462 16.7786 25.8462 16.6154V15.3846C25.8462 15.2214 25.9111 15.0649 26.0265 14.9495C26.1419 14.8341 26.2984 14.7692 26.4616 14.7692ZM19.077 18.4615H20.3078C20.471 18.4615 20.6275 18.5264 20.7429 18.6418C20.8583 18.7572 20.9231 18.9137 20.9231 19.0769V20.3077C20.9231 20.4709 20.8583 20.6274 20.7429 20.7428C20.6275 20.8582 20.471 20.9231 20.3078 20.9231H19.077C18.9138 20.9231 18.7573 20.8582 18.6419 20.7428C18.5264 20.6274 18.4616 20.4709 18.4616 20.3077V19.0769C18.4616 18.9137 18.5264 18.7572 18.6419 18.6418C18.7573 18.5264 18.9138 18.4615 19.077 18.4615ZM22.7693 18.4615H24.0001C24.1633 18.4615 24.3198 18.5264 24.4352 18.6418C24.5506 18.7572 24.6155 18.9137 24.6155 19.0769V20.3077C24.6155 20.4709 24.5506 20.6274 24.4352 20.7428C24.3198 20.8582 24.1633 20.9231 24.0001 20.9231H22.7693C22.6061 20.9231 22.4496 20.8582 22.3342 20.7428C22.2188 20.6274 22.1539 20.4709 22.1539 20.3077V19.0769C22.1539 18.9137 22.2188 18.7572 22.3342 18.6418C22.4496 18.5264 22.6061 18.4615 22.7693 18.4615ZM26.4616 18.4615H27.6924C27.8556 18.4615 28.0121 18.5264 28.1275 18.6418C28.2429 18.7572 28.3078 18.9137 28.3078 19.0769V20.3077C28.3078 20.4709 28.2429 20.6274 28.1275 20.7428C28.0121 20.8582 27.8556 20.9231 27.6924 20.9231H26.4616C26.2984 20.9231 26.1419 20.8582 26.0265 20.7428C25.9111 20.6274 25.8462 20.4709 25.8462 20.3077V19.0769C25.8462 18.9137 25.9111 18.7572 26.0265 18.6418C26.1419 18.5264 26.2984 18.4615 26.4616 18.4615Z" fill="#991B1B"/>
</g>
<defs>
<clipPath id="clip0_22_33">
<rect width="32" height="32" fill="white"/>
</clipPath>
</defs>
</svg>
