<svg width="44" height="23" viewBox="0 0 44 23" fill="none" xmlns="http://www.w3.org/2000/svg">
<rect width="44" height="22.4765" rx="4" fill="#2167AE"/>
<path d="M15.6961 7.83114L12.8743 16.4765H10.863L8.04128 7.83114L8.01126 7.86116V16.4765H6V6H9.3621L11.8537 13.94H11.8837L14.3752 6H17.7373V16.4765H15.7261V7.83114H15.6961Z" fill="white"/>
<path d="M24.4216 7.65103H19.6936V6H26.6579V7.71107L21.6898 14.8255H26.763V16.4765H19.4985V14.7655L24.4216 7.65103Z" fill="white"/>
<path d="M30.5253 14.075L29.6098 16.4765H27.4334L31.5159 6H33.8874L38 16.4765H35.6735L34.773 14.075H30.5253ZM31.1257 12.424H34.1876L32.6717 8.10131H32.6417L31.1257 12.424Z" fill="white"/>
</svg>
