<svg width="115" height="42" viewBox="0 0 115 42" fill="none" xmlns="http://www.w3.org/2000/svg">
<path d="M78.3752 7.89998C78.3752 3.98861 81.5485 0.816406 85.4486 0.816406C89.359 0.816406 92.5221 3.98861 92.5221 7.88971C92.5221 11.8113 89.3488 14.9835 85.4486 14.9835C83.3911 14.9835 81.528 14.1007 80.2382 12.684C80.6989 12.4786 80.8934 12.417 81.4052 12.3349C81.784 12.2733 82.1525 12.2425 82.5517 12.2425C83.1557 12.2425 83.7494 12.3041 84.9368 12.4889C86.1038 12.6634 86.4825 12.7045 86.9636 12.7045H87.066C87.7212 12.6942 88.2739 12.5094 88.7755 12.1399C89.2669 11.7805 89.6149 11.3083 89.9322 10.5999C90.0858 10.2509 90.137 10.1072 90.2393 9.71707L89.922 9.63494C89.8899 9.71548 89.8578 9.77707 89.8355 9.8197C89.8294 9.8314 89.824 9.84168 89.8196 9.85052C89.5842 10.3125 89.185 10.7642 88.7755 11.0517C88.5401 11.2159 88.2842 11.3391 88.018 11.4212C87.67 11.5239 87.3219 11.565 86.7896 11.565C86.5439 11.565 86.2368 11.5547 85.8581 11.5342L84.814 11.4726C84.3329 11.4418 83.9746 11.4315 83.7391 11.4315C83.432 11.4315 83.2785 11.4418 82.8997 11.4726L88.7448 3.6293H81.3847L80.8115 5.85703L81.1595 5.93916L81.2517 5.75437C81.4359 5.40533 81.7328 5.05628 81.9682 4.89202C82.1627 4.7483 82.4084 4.64564 82.6848 4.59431C83.1352 4.51218 83.7698 4.46085 84.4352 4.46085H85.6943L79.8185 12.2014C78.9177 11.0003 78.3752 9.51174 78.3752 7.89998Z" fill="white"/>
<path d="M7.74915 3.20121H0.322027V1.33115H10.1895V3.24371L2.52894 14.2941H10.3168V16.1641H0.0673828V14.2516L7.74915 3.20121Z" fill="white"/>
<path d="M24.591 10.0652C24.591 12.0769 24.0958 13.6424 23.1056 14.7616C22.1153 15.8666 20.6935 16.4191 18.8403 16.4191C16.987 16.4191 15.5653 15.8666 14.575 14.7616C13.5847 13.6566 13.0895 12.0911 13.0895 10.0652V1.33115H15.2116V9.78893C15.2116 11.3898 15.5087 12.5869 16.1028 13.3803C16.697 14.1595 17.6095 14.5491 18.8403 14.5491C20.071 14.5491 20.9835 14.1524 21.5777 13.359C22.1719 12.5657 22.4689 11.3756 22.4689 9.78893V1.33115H24.591V10.0652Z" fill="white"/>
<path fill-rule="evenodd" clip-rule="evenodd" d="M31.884 9.57642H30.3773V16.1641H28.2553V1.33115H32.1386C34.1192 1.33115 35.5268 1.67116 36.3615 2.35118C37.2103 3.01703 37.6347 4.01582 37.6347 5.34753C37.6347 6.19756 37.3588 6.93425 36.8071 7.5576C36.2554 8.16679 35.5127 8.55639 34.579 8.72639V8.76889C34.9326 8.8964 35.2156 9.08765 35.4278 9.34266C35.6541 9.5835 35.8946 9.98018 36.1493 10.5327L38.823 16.1641H36.4039L34.3243 11.4465C34.0838 10.894 33.8575 10.4902 33.6453 10.2352C33.4472 9.98018 33.2138 9.81018 32.945 9.72518C32.6904 9.62601 32.3367 9.57642 31.884 9.57642ZM35.3853 5.39003C35.3853 4.69584 35.1236 4.15749 34.6002 3.77498C34.0909 3.39246 33.3553 3.20121 32.3933 3.20121H30.3773V7.70636H32.2235C33.1855 7.70636 33.9494 7.50093 34.5153 7.09009C35.0953 6.67924 35.3853 6.11255 35.3853 5.39003Z" fill="white"/>
<path d="M43.4773 1.33115V16.1641H41.3552V1.33115H43.4773Z" fill="white"/>
<path d="M54.3064 16.4191C52.7503 16.4191 51.378 16.1004 50.1897 15.4629C49.0155 14.8253 48.103 13.9257 47.4523 12.764C46.8156 11.5882 46.4973 10.2281 46.4973 8.68389C46.4973 7.19634 46.8298 5.8788 47.4947 4.73126C48.1737 3.58372 49.1074 2.69119 50.2958 2.05367C51.4841 1.40198 52.8281 1.07614 54.3276 1.07614C55.5867 1.07614 56.6973 1.28864 57.6592 1.71366L57.4895 3.77498C56.5558 3.22246 55.5372 2.9462 54.4337 2.9462C53.3303 2.9462 52.3471 3.19412 51.4841 3.68997C50.6212 4.18582 49.9492 4.88001 49.4682 5.77254C48.9872 6.65091 48.7467 7.64261 48.7467 8.74764C48.7467 9.86685 48.9872 10.8656 49.4682 11.744C49.9633 12.6224 50.6353 13.3095 51.4841 13.8053C52.3329 14.3012 53.2808 14.5491 54.3276 14.5491C54.9077 14.5491 55.5018 14.4853 56.1102 14.3578C56.7185 14.2162 57.1995 14.0391 57.5531 13.8266L57.6805 15.8879C56.8175 16.2421 55.6928 16.4191 54.3064 16.4191Z" fill="white"/>
<path d="M62.462 9.40641V16.1641H60.34V1.33115H62.462V7.53635H69.5496V1.33115H71.6716V16.1641H69.5496V9.40641H62.462Z" fill="white"/>
<path d="M39.1889 24.6361L33.8696 40.9566H30.0783L24.759 24.6361L24.7024 24.6928V40.9566H20.9111V21.1793H27.2489L31.9457 36.1681H32.0022L36.699 21.1793H43.0368V40.9566H39.2455V24.6361H39.1889Z" fill="white"/>
<path d="M55.6371 24.2961H46.7245V21.1793H59.8528V24.4094L50.4876 37.8399H60.0509V40.9566H46.3567V37.7265L55.6371 24.2961Z" fill="white"/>
<path fill-rule="evenodd" clip-rule="evenodd" d="M68.1051 21.1793C70.7459 21.1793 72.7642 21.6799 74.16 22.681C75.5558 23.6822 76.2537 25.1744 76.2537 27.1578C76.2537 29.1979 75.5936 30.7563 74.2732 31.833C72.9717 32.9097 71.1137 33.448 68.6993 33.448H66.9734V40.9566H63.0122V21.1793H68.1051ZM72.1228 27.3845C72.1228 26.3645 71.7927 25.5995 71.1326 25.0894C70.4724 24.5605 69.5481 24.2961 68.3598 24.2961H66.9734V30.3313H68.3032C70.8496 30.3313 72.1228 29.349 72.1228 27.3845Z" fill="white"/>
<path fill-rule="evenodd" clip-rule="evenodd" d="M83.9967 32.7397H82.6952V40.9566H78.7341V21.1793H84.9304C86.9299 21.1793 88.4672 21.4249 89.5423 21.916C90.6363 22.4071 91.372 23.0399 91.7492 23.8144C92.1265 24.5889 92.3151 25.4956 92.3151 26.5345C92.3151 27.7245 91.9473 28.7446 91.2117 29.5946C90.476 30.4446 89.4857 30.9546 88.2408 31.1246V31.1813C89.1085 31.238 89.8347 31.9841 90.4194 33.4197L93.5035 40.9566H89.0896L86.7978 35.0064C86.5715 34.4209 86.364 33.977 86.1754 33.6747C85.9867 33.3725 85.7227 33.1458 85.3831 32.9947C85.0436 32.8247 84.5815 32.7397 83.9967 32.7397ZM88.1842 26.8745C88.1842 26.0245 87.8824 25.3822 87.2788 24.9478C86.6752 24.5133 85.7132 24.2961 84.3929 24.2961H82.6952V29.6229H84.2231C85.6566 29.6229 86.6752 29.3868 87.2788 28.9146C87.8824 28.4423 88.1842 27.7623 88.1842 26.8745Z" fill="white"/>
<path fill-rule="evenodd" clip-rule="evenodd" d="M95.4084 31.0113C95.4084 28.9335 95.7951 27.1295 96.5685 25.5995C97.3418 24.0694 98.4547 22.8983 99.9071 22.086C101.36 21.2549 103.085 20.8393 105.085 20.8393C107.009 20.8393 108.697 21.2454 110.149 22.0577C111.621 22.8699 112.753 24.0411 113.545 25.5711C114.356 27.1012 114.761 28.9146 114.761 31.0113C114.761 33.108 114.365 34.9403 113.573 36.5082C112.781 38.076 111.649 39.266 110.178 40.0783C108.725 40.8905 107.028 41.2966 105.085 41.2966C103.067 41.2966 101.331 40.8811 99.8788 40.0499C98.4264 39.2188 97.3135 38.0288 96.5402 36.4798C95.7857 34.9309 95.4084 33.108 95.4084 31.0113ZM110.63 31.0113C110.63 29.7457 110.423 28.584 110.008 27.5262C109.612 26.4495 108.989 25.59 108.141 24.9478C107.311 24.2866 106.283 23.9561 105.057 23.9561C103.906 23.9561 102.916 24.2677 102.086 24.8911C101.256 25.4956 100.624 26.3361 100.19 27.4128C99.7562 28.4895 99.5393 29.689 99.5393 31.0113C99.5393 33.1647 100.02 34.9025 100.982 36.2248C101.944 37.5282 103.312 38.1799 105.085 38.1799C106.858 38.1799 108.226 37.5282 109.188 36.2248C110.149 34.9025 110.63 33.1647 110.63 31.0113Z" fill="white"/>
</svg>
