<svg width="20" height="21" viewBox="0 0 20 21" fill="none" xmlns="http://www.w3.org/2000/svg">
<path d="M10.0046 5.6766C12.3046 5.6766 14.1712 7.54326 14.1712 9.84326C14.1712 10.3849 14.0629 10.8933 13.8712 11.3683L16.3046 13.8016C17.5629 12.7516 18.5546 11.3933 19.1629 9.84326C17.7212 6.18493 14.1629 3.59326 9.99622 3.59326C8.82956 3.59326 7.71289 3.80159 6.67956 4.17659L8.47956 5.9766C8.95456 5.78493 9.46289 5.6766 10.0046 5.6766ZM1.67122 3.4016L3.95456 5.68493C2.57122 6.75993 1.48789 8.19326 0.837891 9.84326C2.27956 13.5016 5.83789 16.0933 10.0046 16.0933C11.2962 16.0933 12.5296 15.8433 13.6546 15.3933L14.0046 15.7433L16.4462 18.1766L17.5046 17.1183L2.72956 2.34326L1.67122 3.4016ZM6.27956 8.00993L7.57122 9.3016C7.52956 9.4766 7.50456 9.65993 7.50456 9.84326C7.50456 11.2266 8.62122 12.3433 10.0046 12.3433C10.1879 12.3433 10.3712 12.3183 10.5462 12.2766L11.8379 13.5683C11.2796 13.8433 10.6629 14.0099 10.0046 14.0099C7.70456 14.0099 5.83789 12.1433 5.83789 9.84326C5.83789 9.18493 6.00456 8.56826 6.27956 8.00993ZM9.87122 7.35993L12.4962 9.98493L12.5129 9.8516C12.5129 8.46826 11.3962 7.3516 10.0129 7.3516L9.87122 7.35993Z" fill="#948E8B"/>
</svg>
