<svg width="18" height="12" viewBox="0 0 18 12" fill="none" xmlns="http://www.w3.org/2000/svg">
<path fill-rule="evenodd" clip-rule="evenodd" d="M9 0C4.90909 0 1.41545 2.488 0 6C1.41545 9.512 4.90909 12 9 12C13.0909 12 16.5845 9.512 18 6C16.5845 2.488 13.0909 0 9 0V0ZM9 10C6.74182 10 4.90909 8.208 4.90909 6C4.90909 3.792 6.74182 2 9 2C11.2582 2 13.0909 3.792 13.0909 6C13.0909 8.208 11.2582 10 9 10V10ZM9 3.6C7.64182 3.6 6.54545 4.672 6.54545 6C6.54545 7.328 7.64182 8.4 9 8.4C10.3582 8.4 11.4545 7.328 11.4545 6C11.4545 4.672 10.3582 3.6 9 3.6Z" fill="#948E8B"/>
</svg>
