<svg width="160" height="38" viewBox="0 0 160 38" fill="none" xmlns="http://www.w3.org/2000/svg">
<g clip-path="url(#clip0_2221_28723)">
<path d="M18.479 0.570312C8.29016 0.570312 0 8.78551 0 18.9149C0 23.089 1.41735 26.944 3.77069 30.0546L19.1208 10.0085H17.4628H15.8315C14.0933 10.0085 12.4352 10.1414 11.2586 10.3541C10.5365 10.487 9.8947 10.7529 9.3866 11.1251C8.77152 11.5505 7.99599 12.4544 7.51463 13.3584C7.46114 13.4647 7.38091 13.6242 7.27394 13.8369L6.3647 13.6242L7.86228 7.85499H27.0901L11.8202 28.167C12.8096 28.0872 13.2108 28.0607 14.013 28.0607C14.6281 28.0607 15.5641 28.0872 16.821 28.167L19.5487 28.3265C20.5382 28.3797 21.3405 28.4063 21.9823 28.4063C23.3729 28.4063 24.2821 28.2999 25.1914 28.0341C25.8867 27.8214 26.5552 27.5023 27.1703 27.077C28.24 26.3325 29.283 25.1627 29.898 23.9664C29.9515 23.86 30.0585 23.6739 30.1655 23.408L30.9945 23.6207C30.7271 24.631 30.5934 25.0032 30.1922 25.9072C29.3632 27.7416 28.454 28.9646 27.1703 29.8951C25.8599 30.8522 24.4158 31.3308 22.7043 31.3574H22.4369C21.18 31.3574 20.1905 31.251 17.1419 30.7991C14.0398 30.3205 12.4887 30.161 10.9109 30.161C9.86796 30.161 8.90523 30.2407 7.91576 30.4003C6.57864 30.613 6.07053 30.7725 4.86713 31.3042C8.23667 34.9731 13.1038 37.2596 18.479 37.2596C28.6679 37.2596 36.958 29.0444 36.958 18.8883C36.958 8.78551 28.6946 0.570312 18.479 0.570312Z" fill="#1C6CB1"/>
<path d="M113.576 13.3311C113.576 12.1347 113.603 11.8157 113.764 11.3105C113.817 11.1244 113.924 10.9383 114.031 10.7522C114.218 10.4598 114.352 10.3003 114.7 10.0078H108.923C109.298 10.3268 109.431 10.4598 109.592 10.7256C109.699 10.9117 109.806 11.0979 109.859 11.3105C109.993 11.7359 110.046 12.1613 110.046 13.2248C110.046 13.7565 110.046 14.1287 110.046 14.3148V25.0291C110.046 25.6672 109.939 26.3319 109.752 26.7572C109.672 26.9434 109.592 27.1029 109.458 27.289C109.324 27.4751 109.217 27.5814 108.896 27.927H114.673C114.379 27.6878 114.298 27.5814 114.111 27.289C113.978 27.1029 113.897 26.9168 113.817 26.7307C113.657 26.3319 113.576 25.7204 113.576 25.1621V14.368V13.3311Z" fill="#1C6CB1"/>
<path d="M152.031 13.3045C152.031 12.5069 152.084 11.8954 152.218 11.4169C152.272 11.1776 152.379 10.9649 152.512 10.7522C152.699 10.4332 152.833 10.3003 153.234 10.0078H147.351C147.699 10.3003 147.806 10.4066 148.02 10.7256C148.153 10.9383 148.26 11.151 148.314 11.3371C148.447 11.7625 148.501 12.2942 148.501 13.2248V17.5584H140.451V14.3148C140.451 13.3311 140.451 12.6665 140.505 12.1879C140.532 11.8954 140.585 11.6296 140.639 11.4169C140.772 11.0447 141.093 10.4864 141.387 10.1939C141.414 10.1407 141.494 10.0876 141.575 10.0078H135.798C136.146 10.3534 136.226 10.4598 136.387 10.6991C136.52 10.8852 136.627 11.0979 136.707 11.3105C136.868 11.7625 136.895 12.0018 136.895 13.1982L136.921 14.3414V24.1252C136.921 25.1089 136.895 25.5609 136.841 26.0128C136.814 26.2521 136.734 26.4914 136.654 26.7307C136.494 27.1029 136.306 27.4219 135.959 27.7409C135.905 27.7941 135.852 27.8473 135.771 27.927H141.468C141.227 27.6612 141.147 27.5548 140.986 27.3421C140.879 27.1826 140.772 26.9965 140.692 26.7838C140.505 26.3053 140.451 25.9862 140.425 25.2152C140.425 24.843 140.425 24.4708 140.425 24.1518V19.8182H148.474V24.1518C148.474 25.1089 148.474 25.4811 148.394 25.9597C148.367 26.2255 148.314 26.4914 148.207 26.7307C148.073 27.0763 147.859 27.3687 147.565 27.6612C147.511 27.7144 147.431 27.7941 147.324 27.8739H153.074C152.833 27.6346 152.753 27.5283 152.592 27.3156C152.459 27.1295 152.352 26.9168 152.272 26.7307C152.084 26.3053 152.058 25.9862 152.031 25.1089C152.031 24.5772 152.004 24.2847 152.004 24.1784L152.031 14.3414V13.3045Z" fill="#1C6CB1"/>
<path d="M106.062 26.6516C105.42 26.0401 104.858 25.4818 104.029 24.5779C103.495 24.0196 103.067 23.5144 102.719 23.1156L99.9111 19.8455C100.259 19.7391 100.392 19.686 100.713 19.5796C101.623 19.234 102.318 18.8352 102.933 18.3035C103.655 17.7186 104.083 17.0805 104.35 16.2563C104.511 15.8044 104.564 15.3524 104.564 14.8738C104.564 13.7838 104.163 12.7735 103.361 11.9493C102.612 11.1783 101.596 10.62 100.446 10.3276C99.6437 10.1415 98.8146 10.0617 97.3706 10.0085C96.8357 9.98194 96.2741 9.98193 95.7125 9.98193H91.0593C91.3803 10.2744 91.4872 10.4073 91.6477 10.6466C91.7814 10.8593 91.8884 11.072 91.9686 11.3113C92.1023 11.7101 92.129 12.2684 92.129 13.2255V24.9767C92.129 25.8274 92.0756 26.306 91.9418 26.7048C91.8616 26.9175 91.7546 27.1036 91.6209 27.2631C91.4605 27.4758 91.3535 27.5821 91.0059 27.8746H96.7287C96.4613 27.6087 96.3811 27.5024 96.2206 27.2897C96.0869 27.1302 95.98 26.9441 95.9265 26.7314C95.766 26.3326 95.7125 25.9072 95.6858 25.083C95.6858 24.8172 95.659 24.5247 95.659 24.1791V20.1645L99.0018 24.1259C99.1623 24.312 99.403 24.6045 99.7506 25.0033C100.152 25.4286 100.446 25.7743 100.633 25.9604C101.275 26.625 101.89 27.1036 102.478 27.4226C103.013 27.6885 103.495 27.8214 104.27 27.848C104.564 27.848 104.885 27.848 105.206 27.848H107.452C107.158 27.6087 107.025 27.5024 106.784 27.3163C106.597 27.1568 106.329 26.9175 106.062 26.6516ZM99.189 17.8781C98.5472 18.2503 97.8787 18.463 96.9159 18.5959C96.5415 18.6491 96.2206 18.6757 95.98 18.6757C95.8997 18.6757 95.8195 18.6757 95.6858 18.6491V12.0291C95.9265 12.0291 96.0067 12.0291 96.1671 12.0291C97.0496 12.0291 97.9054 12.1354 98.574 12.3215C99.0286 12.4545 99.4565 12.6672 99.8041 12.9596C100.419 13.4648 100.74 14.2358 100.74 15.1663C100.74 15.9905 100.499 16.6551 100.045 17.1869C99.8041 17.4527 99.5367 17.692 99.189 17.8781Z" fill="#1C6CB1"/>
<path d="M130.852 25.3219C129.783 25.7739 128.767 25.9866 127.724 25.9866C125.852 25.9866 124.274 25.3219 123.097 24.0723C121.92 22.8228 121.305 21.0681 121.305 19.1273C121.305 17.2662 121.894 15.5115 122.937 14.2885C123.391 13.7568 123.926 13.3048 124.568 12.9592C125.584 12.4009 126.761 12.1084 128.044 12.1084C129.141 12.1084 130.211 12.3211 131.28 12.7465C131.949 13.0124 132.19 13.1453 132.751 13.5441V10.1676C132.297 10.0347 132.136 9.98154 131.655 9.87519C130.612 9.6625 129.622 9.55615 128.472 9.55615C126.547 9.55615 124.862 9.87519 123.338 10.5133C122.429 10.8855 121.6 11.3906 120.851 11.9755C118.631 13.7568 117.428 16.3091 117.428 19.2868C117.428 22.1581 118.604 24.6572 120.717 26.3056C122.482 27.6881 124.728 28.3793 127.429 28.3793C129.114 28.3793 130.692 28.1401 132.484 27.5817C132.564 27.5552 132.644 27.5286 132.778 27.502V24.2584C132.35 24.5509 132.19 24.6306 131.949 24.7902C131.601 24.9763 131.254 25.1624 130.852 25.3219Z" fill="#1C6CB1"/>
<path d="M83.0072 10.6998C83.1142 10.8859 83.2211 11.0986 83.2746 11.3113C83.4083 11.7366 83.4351 12.1886 83.4351 13.1723V19.9784C83.4351 21.4407 83.3816 22.318 83.2746 23.0093C83.1944 23.4878 83.0339 23.9398 82.82 24.312C82.3921 25.0298 81.5631 25.5882 80.6004 25.854C80.1992 25.9604 79.7714 25.9869 79.3167 25.9869C77.7657 25.9869 76.4553 25.4021 75.8135 24.4715C75.3054 23.7537 75.1717 23.0359 75.1717 21.2014V19.7391V14.3421C75.1717 13.3052 75.1717 12.8001 75.2251 12.2684C75.2519 11.9493 75.2786 11.6835 75.3589 11.4442C75.4926 11.0454 75.7867 10.4871 76.0809 10.1415C76.1344 10.1149 76.1611 10.0617 76.2414 9.98193H70.3848C70.7324 10.2744 70.8661 10.4073 71.0266 10.6998C71.1336 10.8859 71.2405 11.0986 71.294 11.3113C71.3742 11.5771 71.401 11.8696 71.4277 12.1354C71.4277 12.3215 71.4277 12.6937 71.4277 13.2521V14.2889V19.4201C71.4277 21.3343 71.4277 21.8129 71.508 22.5573C71.6149 23.86 72.0161 24.8969 72.7648 25.854C74.1287 27.5555 76.3216 28.4595 79.1028 28.4595C80.4399 28.4595 81.7236 28.2468 82.713 27.9012C83.756 27.529 84.7187 26.8909 85.3873 26.1199C86.2163 25.1894 86.6977 24.0461 86.8314 22.6371C86.9116 21.8129 86.9651 20.8558 86.9651 19.4467V14.2889L86.9383 13.2786V13.066C86.9383 12.295 86.9918 11.843 87.0988 11.4442C87.1523 11.1783 87.2592 10.939 87.4197 10.7264C87.6069 10.4339 87.7406 10.2744 88.115 9.98193H82.3654C82.713 10.301 82.82 10.4073 83.0072 10.6998Z" fill="#1C6CB1"/>
<path d="M63.2725 25.3748C62.4702 25.5077 61.561 25.614 60.4378 25.6406C60.0634 25.6406 59.5821 25.6406 58.9937 25.6406H56.2393L67.1502 10.0078H53.0034L51.2652 13.8363C51.8535 13.5172 52.0674 13.4109 52.5755 13.2248C53.3778 12.9057 54.2603 12.6665 55.1161 12.5069C55.8649 12.374 56.5334 12.3208 57.6566 12.2942C58.1647 12.2677 58.6193 12.2677 59.0472 12.2677H61.1331L50.1152 27.927H65.6793L67.4711 23.8593C66.856 24.205 66.6153 24.3379 66.1607 24.5506C65.2782 24.9228 64.2887 25.2152 63.2725 25.3748Z" fill="#1C6CB1"/>
<path d="M157.968 3.25537C156.845 3.25537 155.936 4.07955 155.936 5.27594C155.936 6.47233 156.845 7.2965 157.968 7.2965C159.091 7.2965 160 6.47233 160 5.27594C160 4.07955 159.091 3.25537 157.968 3.25537ZM157.968 7.03064C157.005 7.03064 156.256 6.33939 156.256 5.30252C156.256 4.26565 157.005 3.57441 157.968 3.57441C158.931 3.57441 159.679 4.26565 159.679 5.30252C159.679 6.31281 158.957 7.03064 157.968 7.03064Z" fill="#1C6CB1"/>
<path d="M158.877 4.79796C158.877 4.23965 158.502 4.1333 157.861 4.1333H157.219V6.2868H157.54V5.46262H158.101C158.128 5.46262 158.155 5.46262 158.155 5.46262L158.609 6.31339H158.984L158.502 5.40945C158.743 5.27652 158.877 5.06383 158.877 4.79796ZM158.021 5.17017H157.54V4.47892H157.994C158.315 4.47892 158.529 4.5321 158.529 4.82455C158.529 5.03724 158.369 5.17017 158.021 5.17017Z" fill="#1C6CB1"/>
</g>
<defs>
<clipPath id="clip0_2221_28723">
<rect width="160" height="36.6892" fill="white" transform="translate(0 0.570312)"/>
</clipPath>
</defs>
</svg>
